<?xml version="1.0" encoding="utf-8"?>
<!-- Generator: Adobe Illustrator 24.1.1, SVG Export Plug-In . SVG Version: 6.00 Build 0)  -->
<svg version="1.1" id="Layer_1" xmlns="http://www.w3.org/2000/svg" xmlns:xlink="http://www.w3.org/1999/xlink" x="0px" y="0px"
	 viewBox="0 0 800 800" style="enable-background:new 0 0 800 800;" xml:space="preserve">
<style type="text/css">
	.st0{fill:none;stroke:#000000;stroke-width:50;stroke-linecap:round;stroke-linejoin:round;stroke-miterlimit:133.3333;}
	.st1{fill-rule:evenodd;clip-rule:evenodd;}
</style>
<path class="st0" d="M233.3,533.3V378.7c0-17,3.3-33.3,9.5-48.5 M566.7,466.7v-39.5 M307.4,257.8c26.5-15.5,58.3-24.5,92.6-24.5
	c76,0,140.1,44.4,160.2,105"/>
<path class="st0" d="M333.3,566.7v-72.5 M466.7,566.7V395.1c0-34.1-29.8-61.8-66.7-61.8s-66.7,27.7-66.7,61.8v26.5"/>
<path class="st0" d="M400,733.3C215.9,733.3,66.7,584.1,66.7,400C66.7,215.9,215.9,66.7,400,66.7c184.1,0,333.3,149.2,333.3,333.3
	c0,34.8-5.3,68.4-15.3,100"/>
<path class="st1" d="M621.7,606.7c-26.8,0-48.5,21.7-48.5,48.5c0,26.8,21.7,48.5,48.5,48.5c26.8,0,48.5-21.7,48.5-48.5
	C670.2,628.4,648.5,606.7,621.7,606.7z M597.4,655.2c0-13.4,10.9-24.2,24.2-24.2c13.4,0,24.2,10.9,24.2,24.2
	c0,13.4-10.9,24.2-24.2,24.2C608.3,679.4,597.4,668.5,597.4,655.2z"/>
<path class="st1" d="M621.7,606.7c-26.8,0-48.5,21.7-48.5,48.5c0,26.8,21.7,48.5,48.5,48.5c26.8,0,48.5-21.7,48.5-48.5
	C670.2,628.4,648.5,606.7,621.7,606.7z M597.4,655.2c0-13.4,10.9-24.2,24.2-24.2c13.4,0,24.2,10.9,24.2,24.2
	c0,13.4-10.9,24.2-24.2,24.2C608.3,679.4,597.4,668.5,597.4,655.2z"/>
<path class="st1" d="M606.7,522c2.7-0.2,5.8-0.2,8.3-0.2h13.3c2.5,0,5.6,0,8.3,0.2c3.2,0.2,7.7,0.9,12.5,3.1
	c6.1,2.8,11.2,7.1,15,12.6c3,4.4,4.3,8.7,5.1,11.8c0.7,2.7,1.2,5.7,1.6,8.1l1.7,9.9l0,0c0.4,0.2,0.8,0.5,1.3,0.7l0,0l11.4-4.1
	c2.3-0.8,5.1-1.9,7.7-2.6c3.1-0.9,7.4-1.8,12.6-1.4c6.5,0.5,12.8,2.7,18.2,6.5c4.2,3,7,6.4,8.9,9c1.6,2.2,3.1,4.8,4.4,6.9l6.1,10.2
	c1.3,2.2,3,4.9,4.2,7.5c1.5,3,3.3,7.3,3.8,12.7c0.7,6.8-0.6,13.7-3.6,19.8c-2.4,4.9-5.6,8.3-8,10.5c-2.1,1.9-4.5,3.9-6.6,5.5
	l-8.2,6.4l8.2,6.4c2,1.6,4.5,3.6,6.6,5.5c2.4,2.3,5.6,5.6,8,10.5c3,6.1,4.3,13,3.6,19.8c-0.5,5.4-2.3,9.7-3.8,12.7
	c-1.3,2.5-2.9,5.2-4.2,7.5l-6.1,10.2c-1.3,2.1-2.8,4.7-4.4,6.9c-1.8,2.6-4.6,6.1-8.9,9c-5.4,3.8-11.7,6-18.2,6.5
	c-5.2,0.4-9.5-0.5-12.6-1.4c-2.6-0.7-5.4-1.7-7.7-2.6l-11.4-4.1l0,0c-0.4,0.2-0.8,0.5-1.3,0.7l0,0l-1.7,9.9
	c-0.4,2.5-0.9,5.5-1.6,8.1c-0.8,3.1-2.2,7.4-5.1,11.8c-3.7,5.5-8.9,9.9-15,12.6c-4.8,2.2-9.3,2.8-12.5,3.1c-2.7,0.2-5.8,0.2-8.3,0.2
	H615c-2.5,0-5.6,0-8.3-0.2c-3.2-0.2-7.7-0.9-12.5-3.1c-6.1-2.8-11.2-7.1-15-12.6c-3-4.4-4.3-8.7-5.1-11.8c-0.7-2.7-1.2-5.7-1.6-8.1
	l-1.7-9.9l0,0c-0.4-0.2-0.8-0.5-1.3-0.7l0,0l-11.4,4.1c-2.3,0.8-5.1,1.9-7.7,2.6c-3.1,0.9-7.4,1.8-12.6,1.4
	c-6.5-0.5-12.8-2.7-18.2-6.5c-4.2-3-7-6.4-8.9-9c-1.6-2.2-3.1-4.8-4.4-6.9l-6.1-10.2c-1.3-2.2-3-4.9-4.2-7.5
	c-1.5-3-3.3-7.3-3.8-12.7c-0.7-6.8,0.6-13.7,3.6-19.8c2.4-4.9,5.6-8.3,8-10.5c2.1-1.9,4.5-3.9,6.6-5.5l7.9-6.3v-0.1l-7.9-6.3
	c-2-1.6-4.5-3.6-6.6-5.5c-2.4-2.3-5.6-5.6-8-10.5c-3-6.1-4.3-13-3.6-19.8c0.5-5.4,2.3-9.7,3.8-12.7c1.3-2.5,2.9-5.2,4.2-7.5
	l6.1-10.2c1.3-2.1,2.8-4.7,4.4-6.9c1.8-2.6,4.6-6.1,8.9-9c5.4-3.8,11.7-6,18.2-6.5c5.2-0.4,9.5,0.5,12.6,1.4
	c2.6,0.7,5.4,1.7,7.7,2.6l11.4,4.1l0,0c0.4-0.2,0.8-0.5,1.3-0.7l0,0l1.7-9.9c0.4-2.5,0.9-5.5,1.6-8.1c0.8-3.1,2.2-7.4,5.1-11.8
	c3.7-5.5,8.9-9.9,15-12.6C599,522.9,603.5,522.3,606.7,522z M647.1,562.3c-1-5.8-1.5-8.7-3-10.9c-1.2-1.8-3-3.3-5-4.2
	c-2.4-1.1-5.3-1.1-11.2-1.1h-12.3c-5.9,0-8.9,0-11.2,1.1c-2,0.9-3.7,2.4-5,4.2c-1.5,2.2-2,5.1-3,10.9l-1.9,11
	c-0.7,3.9-1,5.9-1.7,7.4c-0.7,1.5-1.3,2.3-2.4,3.4c-1.2,1.2-3.4,2.4-7.8,4.8c-0.3,0.2-0.6,0.4-1,0.5c-4.2,2.4-6.3,3.6-7.9,4
	c-1.5,0.4-2.5,0.5-4.1,0.3c-1.6-0.1-3.4-0.8-7-2.1l-12.3-4.4c-5.4-2-8.2-3-10.7-2.8c-2.2,0.2-4.3,0.9-6.1,2.2
	c-2.1,1.5-3.6,4-6.6,8.9l-5.6,9.3c-3.1,5.2-4.7,7.9-5,10.6c-0.2,2.3,0.2,4.6,1.2,6.6c1.2,2.4,3.6,4.3,8.4,8.1l8.8,7
	c3.1,2.4,4.6,3.6,5.5,4.9c1,1.4,1.5,2.3,1.9,4c0.4,1.6,0.4,4.1,0.4,9.1s0,7.5-0.4,9.1c-0.5,1.7-0.9,2.6-1.9,4
	c-1,1.3-2.5,2.5-5.5,4.9l-8.8,7c-4.8,3.8-7.2,5.7-8.4,8.1c-1,2-1.4,4.3-1.2,6.6c0.3,2.7,1.8,5.3,5,10.6l5.6,9.3c3,5,4.5,7.5,6.6,8.9
	c1.8,1.3,3.9,2,6.1,2.2c2.6,0.2,5.3-0.8,10.7-2.8l12.3-4.4c3.6-1.3,5.4-2,7-2.1c1.6-0.1,2.5,0,4.1,0.3c1.6,0.4,3.7,1.6,7.9,4
	c0.3,0.2,0.6,0.4,1,0.5c4.4,2.4,6.6,3.6,7.8,4.8c1.2,1.1,1.7,2,2.4,3.4c0.7,1.5,1.1,3.5,1.7,7.4l1.9,11c1,5.8,1.5,8.7,3,10.9
	c1.2,1.8,3,3.3,5,4.2c2.4,1.1,5.3,1.1,11.2,1.1h12.3c5.9,0,8.9,0,11.2-1.1c2-0.9,3.7-2.4,5-4.2c1.5-2.2,2-5.1,3-10.9l1.9-11
	c0.7-3.9,1-5.9,1.7-7.4c0.7-1.5,1.3-2.3,2.4-3.4c1.2-1.2,3.4-2.4,7.8-4.8c0.3-0.2,0.6-0.4,1-0.5c4.2-2.4,6.3-3.6,7.9-4
	c1.5-0.4,2.5-0.5,4.1-0.3c1.6,0.1,3.4,0.8,7,2.1l12.3,4.4c5.4,2,8.2,3,10.7,2.8c2.2-0.2,4.3-0.9,6.1-2.2c2.1-1.5,3.6-4,6.6-8.9
	l5.6-9.3c3.1-5.2,4.7-7.9,5-10.6c0.2-2.3-0.2-4.6-1.2-6.6c-1.2-2.4-3.6-4.3-8.4-8.1l-8.8-7c-3.1-2.4-4.6-3.6-5.5-4.9
	c-1-1.4-1.5-2.3-1.9-4c-0.4-1.6-0.4-4.1-0.4-9.1s0-7.5,0.4-9.1c0.5-1.7,0.9-2.6,1.9-4c1-1.3,2.5-2.5,5.5-4.9l8.8-7
	c4.8-3.8,7.2-5.7,8.4-8.1c1-2,1.4-4.3,1.2-6.6c-0.3-2.7-1.8-5.3-5-10.6l-5.6-9.3c-3-5-4.5-7.5-6.6-8.9c-1.8-1.3-3.9-2-6.1-2.2
	c-2.6-0.2-5.3,0.8-10.7,2.8l-12.3,4.4c-3.6,1.3-5.4,2-7,2.1c-1.6,0.1-2.5,0-4.1-0.3c-1.6-0.4-3.7-1.6-7.9-4c-0.3-0.2-0.6-0.4-1-0.5
	c-4.4-2.4-6.6-3.6-7.8-4.8c-1.2-1.1-1.7-2-2.4-3.4c-0.7-1.5-1.1-3.5-1.7-7.4L647.1,562.3z"/>
</svg>
